<svg width="122" height="102" viewBox="0 0 122 102" fill="none" xmlns="http://www.w3.org/2000/svg">
<g clip-path="url(#clip0_1_54)">
<path d="M80.4754 60.0381C80.4754 60.0381 80.4692 60.0381 80.4661 60.0412C80.4538 60.0566 80.4446 60.0689 80.4446 60.0689C80.4446 60.0689 80.4631 60.0504 80.4785 60.0381H80.4754Z" fill="#0071BD"/>
<path d="M96.6251 11.5401L96.5457 9.85796L95.087 9.01393C88.6083 5.26136 77.9358 0.661812 63.9048 0.0648123C46.2801 -0.685113 32.9844 5.34664 26.6262 9.01098L25.1616 9.85502L25.0822 11.5431C24.794 17.6895 25.2557 23.8683 26.4497 29.9089C28.3172 39.358 31.4698 47.4395 35.8223 53.9301C41.1424 61.8705 48.474 65.7201 56.238 69.7991L57.3643 70.3902C58.4407 70.9578 59.6464 71.2401 60.8551 71.2401C62.0638 71.2401 63.2696 70.9578 64.346 70.3902C67.4868 68.7374 70.8189 66.9817 74.0362 64.9054C73.2216 65.4319 67.481 63.0968 66.4252 62.5792C63.646 61.2176 61.6933 58.9443 59.8552 56.5004C57.7202 53.6595 54.3587 49.1864 53.8411 42.7988C53.2147 35.0849 58.3936 24.4565 67.2869 24.3624C70.6306 24.3271 73.0628 26.1328 73.9744 26.8945C74.1127 25.8711 74.392 22.7979 72.5569 19.7393C69.766 15.0869 64.5018 14.4899 63.8901 14.4281C63.4343 13.2988 62.2991 10.9343 59.7758 9.03451C58.0466 7.7317 56.3379 7.15823 55.2528 6.88767C61.2257 6.33184 69.8748 6.32302 79.6327 9.19626C83.8323 10.4314 87.4702 11.9754 90.5228 13.5282C90.6375 18.613 90.1964 23.7095 89.2082 28.7061C87.2613 38.5434 84.1146 46.2867 79.8474 51.7244C77.2506 55.0358 73.8774 57.6797 70.3013 59.9559C71.3953 60.3441 72.9716 60.7676 74.8979 60.8441C77.3006 60.9382 79.2445 60.4559 80.4708 60.0442C80.7649 59.7148 84.3616 55.9799 84.7057 55.5417C89.5758 49.3335 93.1284 40.7078 95.2664 29.9089C96.4604 23.8683 96.9222 17.6895 96.6339 11.5431L96.6251 11.5401ZM37.1281 27.5915C34.9901 31.3705 34.7724 34.9819 34.7901 36.7818C34.299 34.6143 33.8078 32.444 33.3138 30.2765C33.4784 29.4413 33.7931 28.4355 34.4019 27.4062C36.434 23.9566 40.1513 22.9772 41.1395 22.7479C39.9778 23.736 38.4221 25.3094 37.1281 27.5944V27.5915ZM53.8353 61.1764C51.9766 60.3412 48.0299 58.2208 45.8155 53.8242C42.5775 47.4013 44.3744 38.7786 50.4944 32.4351C49.4033 34.6673 47.3506 39.6344 47.8211 46.1367C48.3917 53.9977 52.3001 59.2942 53.8353 61.1764ZM58.6936 13.9781C59.5376 14.2075 60.2376 14.5251 60.7875 14.831C59.6906 15.4133 58.5907 15.9956 57.4937 16.5779L54.1529 13.887C55.1145 13.6782 56.7761 13.4605 58.6936 13.9811V13.9781Z" fill="#EF4444"/>
<path d="M81.1885 12.6604L82.9177 17.6334L88.1819 17.7393L83.9853 20.9213L85.5087 25.9591L81.1885 22.9535L76.8654 25.9591L78.3917 20.9213L74.1951 17.7393L79.4593 17.6334L81.1885 12.6604Z" fill="#EF4444"/>
<path d="M80.4827 28.8059L81.2562 31.0292L83.6089 31.0792L81.7326 32.4997L82.4149 34.7553L80.4827 33.4084L78.5506 34.7553L79.2329 32.4997L77.3566 31.0792L79.7093 31.0292L80.4827 28.8059Z" fill="#EF4444"/>
<path d="M77.3565 37.8022L77.7418 38.9139L78.9182 38.9374L77.98 39.6491L78.3212 40.7755L77.3565 40.102L76.389 40.7755L76.7301 39.6491L75.792 38.9374L76.9683 38.9139L77.3565 37.8022Z" fill="#EF4444"/>
</g>
<path d="M2.24854 92.125V85.05L5.14854 83.375H11.4735L14.3735 85.05V88.375H10.8735V86.375H5.74854V90.55H11.4735L14.3735 92.225V99.45L11.4735 101.125H4.89854L1.99854 99.45V96.125H5.49854V98.125H10.8735V93.8H5.14854L2.24854 92.125ZM44.5337 95.875H48.0337V99.45L45.1337 101.125H38.0587L35.1587 99.45V85.05L38.0587 83.375H45.1337L48.0337 85.05V88.625H44.5337V86.375H38.6587V98.125H44.5337V95.875ZM62.1538 83.5H65.6538V99.45L62.7538 101.125H54.9288L52.0288 99.45V83.5H55.5288V97.875H62.1538V83.5ZM83.1749 101H79.3249L75.5749 94.4H73.3999V101H69.8999V83.5H79.3749L82.2749 85.175V92.725L79.3749 94.4L83.1749 101ZM73.3999 86.5V91.4H78.7749V86.5H73.3999ZM86.5259 101V83.5H90.0259V101H86.5259ZM100.99 86.5V101H97.4901V86.5H92.7651V83.5H105.715V86.5H100.99ZM112.349 101V93.525L106.724 83.5H110.524L114.074 90.05H114.124L117.699 83.5H121.499L115.849 93.55V101H112.349Z" fill="white"/>
<path d="M28.0054 101.125H21.5304L18.6304 99.45V95.875H22.1304V98.125H27.4054V93.45H23.0304V90.45H27.4054V86.375H22.1304V88.625H18.6304V85.05L21.5304 83.375H28.0054L30.9054 85.05V90.675L28.7304 91.925V91.975L30.9054 93.225V99.45L28.0054 101.125Z" fill="#EF4444"/>
<defs>
<clipPath id="clip0_1_54">
<rect width="71.7105" height="71.24" fill="white" transform="translate(25)"/>
</clipPath>
</defs>
</svg>
